<?xml version="1.0" standalone="no"?>
<svg
  width="600"
  height="600"
  viewBox="0 0 600 600"
  xmlns="http://www.w3.org/2000/svg"
>
  <g transform="translate(300,300)">
    <path d="M148.8,-194C175.9,-154.6,169.2,-91.6,173.3,-35.4C177.3,20.7,192.2,70.1,177.9,110.1C163.6,150.1,120.3,180.8,74.3,192.4C28.4,203.9,-20.2,196.4,-75.3,185.6C-130.4,174.8,-192.1,160.6,-202.1,125.4C-212.2,90.1,-170.6,33.7,-151.2,-18.1C-131.9,-69.8,-134.7,-116.9,-113.2,-157.2C-91.7,-197.6,-45.9,-231.3,7.5,-240.2C60.9,-249.2,121.7,-233.4,148.8,-194Z" fill="#cae6d7" />
  </g>
</svg>
  